<svg xmlns="http://www.w3.org/2000/svg" xmlns:xlink="http://www.w3.org/1999/xlink"
	version="1.1" x="0px" y="0px" viewBox="0 0 481.9 481.9" xml:space="preserve">
<path d="M432.5,118.1c5.5,0,10-4.5,10-10s-4.5-10-10-10h-31.8V71.2h31.8c5.5,0,10-4.5,10-10s-4.5-10-10-10H47
	c-5.5,0-10,4.5-10,10s4.5,10,10,10h333.8v26.9H47c-5.5,0-10,4.5-10,10s4.5,10,10,10h333.8V145H47c-5.5,0-10,4.5-10,10s4.5,10,10,10
	h333.8v26.9H47c-5.5,0-10,4.5-10,10s4.5,10,10,10h333.8v26.9H47c-5.5,0-10,4.5-10,10s4.5,10,10,10h333.8v26.9H47
	c-5.5,0-10,4.5-10,10s4.5,10,10,10h333.8v81.3c0,0.4,0,0.7,0.1,1.1c-8.1,3.7-13.7,11.9-13.7,21.4v28.3c0,3.2,2.6,5.9,5.9,5.9h35.3
	c3.2,0,5.9-2.7,5.9-5.9v-28.3c0-9.4-5.6-17.6-13.6-21.4c0.1-0.4,0.1-0.8,0.1-1.1v-81.3h31.8c5.5,0,10-4.5,10-10s-4.5-10-10-10h-31.8
	v-26.9h31.8c5.5,0,10-4.5,10-10s-4.5-10-10-10h-31.8v-26.9h31.8c5.5,0,10-4.5,10-10s-4.5-10-10-10h-31.8V165h31.8
	c5.5,0,10-4.5,10-10s-4.5-10-10-10h-31.8v-26.9H432.5z M402.5,432H379v-22.4c0-6.5,5.3-11.7,11.7-11.7c6.5,0,11.7,5.3,11.7,11.7V432
	z"/>
</svg>
